<svg width="909" height="1161" viewBox="0 0 909 1161" fill="none" xmlns="http://www.w3.org/2000/svg">
<path opacity="0.5" d="M318.635 86.6942C198.697 187.217 180.111 377.298 98.8809 517.527C70.6041 566.322 34.0667 609.992 15.0036 664.123C-28.7619 788.026 31.472 928.572 112.093 1026.98C150.536 1073.93 195.44 1116.94 249.77 1136.72C291.55 1151.94 336.348 1152.57 380.325 1152.97L1150.79 1160.9C1236.81 1161.77 1332.39 1158.62 1394.24 1092.21C1436.87 1046.48 1454.18 979.692 1468.88 915.944C1486.93 837.613 1503.3 752.546 1475.2 677.94C1443.11 592.582 1361.96 544.21 1311.55 470.555C1229.74 351.223 1231.62 170.731 1127.44 75.4664C1078.8 31.0041 1014.62 13.5679 952.083 4.84978C834.184 -11.6089 722.506 19.4592 606.725 15.1266C507.756 11.428 400.739 17.8741 318.635 86.6942Z" fill="#E7ECFF"/>
<path opacity="0.24" d="M560.078 982.613C513.629 987.283 465.755 992.419 424.881 1015.26C419.41 1018.33 413.856 1021.94 410.837 1027.46C404.78 1038.55 411.655 1053.18 422.324 1059.86C432.993 1066.53 446.156 1067.29 458.712 1067.84C682.279 1077.59 906.181 1073.76 1129.94 1069.96C1194.92 1068.86 1260.92 1067.59 1323.19 1048.72C1334.39 1045.34 1346.69 1040.26 1350.9 1029.21C1356.42 1014.76 1343.84 998.737 1329.17 994.236C1314.5 989.735 1298.84 993.095 1283.66 995.06C1230.97 1001.89 1177.81 991.446 1125.35 983.099C1022.64 966.784 916.075 953.512 812.047 951.039C776.581 950.215 746.293 962.515 711.582 967.376C661.465 974.434 610.467 977.541 560.078 982.613Z" fill="#505F98"/>
<path d="M377.369 549.326L493.198 313.408L562.185 347.19L446.355 583.108L377.369 549.326Z" fill="white"/>
<path d="M404.214 542.055L418.327 513.22L464.791 535.903L450.678 564.738L404.214 542.055Z" fill="#505F98"/>
<path d="M404.214 542.055L418.327 513.22L464.791 535.903L450.678 564.738L404.214 542.055Z" fill="url(#paint0_linear_108_1327)"/>
<path d="M418.329 513.445L432.443 484.61L478.907 507.293L464.794 536.128L418.329 513.445Z" fill="#505F98"/>
<path d="M418.329 513.445L432.443 484.61L478.907 507.293L464.794 536.128L418.329 513.445Z" fill="url(#paint1_linear_108_1327)"/>
<path d="M432.426 484.826L446.54 455.991L493.004 478.674L478.89 507.509L432.426 484.826Z" fill="#505F98"/>
<path d="M432.426 484.826L446.54 455.991L493.004 478.674L478.89 507.509L432.426 484.826Z" fill="url(#paint2_linear_108_1327)"/>
<path d="M446.563 456.237L460.676 427.402L507.14 450.085L493.027 478.92L446.563 456.237Z" fill="#505F98"/>
<path d="M446.563 456.237L460.676 427.402L507.14 450.085L493.027 478.92L446.563 456.237Z" fill="url(#paint3_linear_108_1327)"/>
<path d="M460.668 427.599L474.782 398.764L521.246 421.447L507.133 450.282L460.668 427.599Z" fill="#505F98"/>
<path d="M474.784 399.01L488.897 370.175L535.362 392.858L521.248 421.693L474.784 399.01Z" fill="#505F98"/>
<path d="M488.881 370.391L502.994 341.556L549.458 364.239L535.345 393.074L488.881 370.391Z" fill="#505F98"/>
<path d="M473.196 402.598L487.309 373.763L533.774 396.446L519.66 425.281L473.196 402.598Z" fill="url(#paint4_linear_108_1327)"/>
<path d="M487.321 373.97L501.434 345.135L547.898 367.817L533.785 396.652L487.321 373.97Z" fill="url(#paint5_linear_108_1327)"/>
<rect x="787.837" y="867" width="98.0679" height="82" fill="#505F98"/>
<rect x="787.837" y="867" width="98.0679" height="82" fill="url(#paint6_linear_108_1327)"/>
<rect x="579.693" y="525" width="518.359" height="355" rx="9.37" fill="#505F98"/>
<path opacity="0.65" d="M1081.04 554.438V848.562C1081.06 853.443 1079.13 858.129 1075.69 861.588C1072.25 865.047 1067.58 866.994 1062.7 867H611.039C606.165 866.989 601.494 865.04 598.056 861.582C594.617 858.125 592.691 853.441 592.702 848.562V554.438C592.691 549.559 594.617 544.875 598.056 541.418C601.494 537.96 606.165 536.011 611.039 536H1062.7C1067.58 536.006 1072.25 537.953 1075.69 541.412C1079.13 544.871 1081.06 549.557 1081.04 554.438V554.438Z" fill="url(#paint7_linear_108_1327)"/>
<rect x="742.806" y="939" width="206.143" height="21" fill="#505F98"/>
<rect x="787.837" y="927" width="98.0679" height="12" fill="url(#paint8_linear_108_1327)"/>
<path fill-rule="evenodd" clip-rule="evenodd" d="M942.945 353.241V373.715L930.235 373.819C928.999 383.346 925.375 392.41 919.697 400.181L930.552 411.351L915.672 425.6L904.986 414.578C898.397 419.062 890.962 422.17 883.13 423.714V437H862.559V424.029C853.774 422.76 845.402 419.497 838.089 414.494L829.153 423.316L814.589 408.647L823.462 399.993C817.876 392.219 814.313 383.191 813.092 373.715H798.845V353.241H813.598C815.427 345.093 819.024 337.441 824.136 330.819L815.896 322.332L830.776 308.082L839.206 316.82C846.176 312.214 854.1 309.228 862.39 308.082V294H882.961V308.396C891.33 310.055 899.239 313.493 906.145 318.476L916.683 308.166L931.163 322.709L920.625 333.187C924.756 339.267 927.689 346.073 929.266 353.241H942.945ZM836.803 366.15C836.78 385.211 852.303 400.682 871.474 400.705C880.686 400.733 889.529 397.113 896.051 390.644C902.572 384.176 906.235 375.392 906.229 366.233C906.253 347.172 890.73 331.701 871.559 331.678C852.387 331.655 836.827 347.088 836.803 366.15Z" fill="#505F98"/>
<path d="M1081.04 554.513V561H592.702V554.513C592.691 549.614 594.617 544.912 598.056 541.44C601.495 537.968 606.166 536.011 611.041 536H1062.7C1067.58 536.006 1072.25 537.961 1075.69 541.434C1079.13 544.907 1081.06 549.613 1081.04 554.513V554.513Z" fill="url(#paint9_linear_108_1327)"/>
<rect x="602.709" y="593" width="47.0326" height="227" fill="url(#paint10_linear_108_1327)"/>
<rect x="720.791" y="609" width="221.153" height="209" fill="url(#paint11_linear_108_1327)"/>
<rect x="771.826" y="707" width="7.00485" height="9" fill="url(#paint12_linear_108_1327)"/>
<rect x="771.826" y="665" width="7.00485" height="9" fill="url(#paint13_linear_108_1327)"/>
<rect x="676.76" y="707" width="7.00485" height="9" fill="url(#paint14_linear_108_1327)"/>
<rect x="676.76" y="665" width="7.00485" height="9" fill="url(#paint15_linear_108_1327)"/>
<rect x="771.826" y="620" width="7.00485" height="9" fill="url(#paint16_linear_108_1327)"/>
<rect x="677.761" y="620" width="7.00485" height="9" fill="url(#paint17_linear_108_1327)"/>
<rect x="725.794" y="620" width="7.00485" height="9" fill="url(#paint18_linear_108_1327)"/>
<rect x="725.794" y="707" width="7.00485" height="9" fill="url(#paint19_linear_108_1327)"/>
<path fill-rule="evenodd" clip-rule="evenodd" d="M689.769 705H767.823V632H689.769V705ZM759.961 697.282H697.631V639.656H759.961V697.282Z" fill="#505F98"/>
<path fill-rule="evenodd" clip-rule="evenodd" d="M689.769 705H767.823V632H689.769V705ZM759.961 697.282H697.631V639.656H759.961V697.282Z" fill="url(#paint20_linear_108_1327)"/>
<rect opacity="0.65" x="602.709" y="592" width="47.0326" height="13" fill="url(#paint21_linear_108_1327)"/>
<path d="M399.673 523.827L604.801 359.293L652.914 419.118L447.785 583.652L399.673 523.827Z" fill="white"/>
<path d="M428.396 528.455L453.464 508.235L486.046 548.522L460.979 568.742L428.396 528.455Z" fill="#505F98"/>
<path d="M428.396 528.455L453.464 508.235L486.046 548.522L460.979 568.742L428.396 528.455Z" fill="url(#paint22_linear_108_1327)"/>
<path d="M452.014 508.689L477.047 488.56L509.481 528.79L484.449 548.919L452.014 508.689Z" fill="#505F98"/>
<path d="M452.014 508.689L477.047 488.56L509.481 528.79L484.449 548.919L452.014 508.689Z" fill="url(#paint23_linear_108_1327)"/>
<path d="M476.958 488.761L501.99 468.633L534.425 508.863L509.393 528.991L476.958 488.761Z" fill="#505F98"/>
<path d="M476.958 488.761L501.99 468.633L534.425 508.863L509.393 528.991L476.958 488.761Z" fill="url(#paint24_linear_108_1327)"/>
<path d="M501.886 468.847L526.918 448.718L559.353 488.948L534.321 509.077L501.886 468.847Z" fill="#505F98"/>
<path d="M501.886 468.847L526.918 448.718L559.353 488.948L534.321 509.077L501.886 468.847Z" fill="url(#paint25_linear_108_1327)"/>
<path d="M528.006 448.389L553.073 428.169L585.656 468.456L560.588 488.676L528.006 448.389Z" fill="#505F98"/>
<path d="M553.086 427.99L578.154 407.77L610.736 448.057L585.668 468.277L553.086 427.99Z" fill="#505F98"/>
<path d="M576.693 409.051L601.726 388.923L634.161 429.153L609.128 449.281L576.693 409.051Z" fill="#505F98"/>
<path d="M606.712 452.218L585.613 469L553.675 428.782L574.774 412L606.712 452.218V452.218Z" fill="url(#paint26_linear_108_1327)"/>
<path d="M573.736 411.648L598.768 391.519L631.203 431.749L606.171 451.878L573.736 411.648Z" fill="url(#paint27_linear_108_1327)"/>
<path d="M522.653 533.15V656H501.639V533.15C501.639 528.61 504.457 524.57 508.657 523.089V510.825C508.657 508.712 510.333 507 512.4 507C514.468 507 516.144 508.712 516.144 510.825V523.297C520.063 524.935 522.632 528.823 522.653 533.15V533.15Z" fill="#505F98"/>
<path d="M522.653 533.15V656H501.639V533.15C501.639 528.61 504.457 524.57 508.657 523.089V510.825C508.657 508.712 510.333 507 512.4 507C514.468 507 516.144 508.712 516.144 510.825V523.297C520.063 524.935 522.632 528.823 522.653 533.15V533.15Z" fill="url(#paint28_linear_108_1327)"/>
<rect x="488.63" y="611" width="50.0346" height="9" rx="2.245" fill="#505F98"/>
<path d="M513.336 693V693C504.763 693 497.636 680.185 497.636 671.634V615H528.658V671.634C528.658 680.185 521.887 693 513.336 693Z" fill="#505F98"/>
<rect x="488.63" y="611" width="50.0346" height="9" rx="2.245" fill="url(#paint29_linear_108_1327)"/>
<path d="M513.336 693V693C504.763 693 497.636 680.366 497.636 671.937V620H528.658V671.937C528.658 680.366 521.887 693 513.336 693Z" fill="url(#paint30_linear_108_1327)"/>
<path d="M713.428 753C712.754 749.436 712.329 744.39 713.623 744.043C716.351 743.275 713.428 753 713.428 753Z" fill="#28353D"/>
<path d="M856.687 948.507C856.201 961.102 846.439 1007.39 846.122 1020C846.122 1024.2 847.242 1030.65 845.889 1034.7C843.1 1043.28 833.211 1042.11 831.922 1037.05L831.436 1034.53C826.85 1010.01 834.225 982.198 831.436 950.186C829.766 930.643 821.99 892.963 816.898 892.711C814.214 892.711 752.957 1021.85 747.632 1029.81C745.011 1033.82 737.637 1033.19 734.066 1036.42C730.495 1039.65 763.818 938.515 777.785 885.07C781.043 874.039 783.167 862.709 784.124 851.252C784.505 844.64 782.37 842.415 788.477 840.463C792.703 839.119 798.557 839.497 803.078 839.182C808.002 838.804 853.792 838.72 853.792 841.953C853.348 859.502 857.87 919.412 856.687 948.507Z" fill="#606161"/>
<path d="M856.687 948.507C856.201 961.102 846.439 1007.39 846.122 1020C846.122 1024.2 847.242 1030.65 845.889 1034.7C843.1 1043.28 833.211 1042.11 831.922 1037.05L831.436 1034.53C826.85 1010.01 834.225 982.198 831.436 950.186C829.766 930.643 821.99 892.963 816.898 892.711C814.214 892.711 752.957 1021.85 747.632 1029.81C745.011 1033.82 737.637 1033.19 734.066 1036.42C730.495 1039.65 763.818 938.515 777.785 885.07C781.043 874.039 783.167 862.709 784.124 851.252C784.505 844.64 782.37 842.415 788.477 840.463C792.703 839.119 798.557 839.497 803.078 839.182C808.002 838.804 853.792 838.72 853.792 841.953C853.348 859.502 857.87 919.412 856.687 948.507Z" fill="url(#paint31_linear_108_1327)"/>
<path d="M802.614 680.148C802.229 676.163 800.346 674 798.506 674C796.667 674 795.533 676.12 795.918 680.148C796.005 683.122 798.249 685.597 801.223 686C803.085 686 803.02 684.134 802.614 680.148Z" fill="#FFCD9C"/>
<path d="M835.008 680.159C835.258 676.166 837.095 674 838.994 674C840.893 674 842.124 676.124 841.832 680.159C841.805 683.173 839.56 685.687 836.615 686C834.736 686 834.715 684.152 835.008 680.159Z" fill="#FFCD9C"/>
<path d="M838.732 697.672C838.473 699.777 829.558 709 819.413 709C809.267 709 800.892 700.577 799.122 697.208C797.352 693.839 804.475 650.505 808.598 646.884C812.721 643.262 829.429 645.641 830.832 647.558C834.199 652.085 839.833 689.27 838.732 697.672Z" fill="#F4AD7D"/>
<path d="M834.538 664.977C833.159 665.639 827.743 651.842 826.607 649.525C825.472 647.208 825.654 644.829 827.033 644.167C828.413 643.505 830.441 644.871 831.577 647.167C832.713 649.463 835.897 664.336 834.538 664.977Z" fill="#FFCD9C"/>
<path d="M804.168 663.987C802.737 663.501 806.525 649.179 807.351 646.703C808.177 644.228 810.031 642.599 811.381 643.086C812.731 643.573 813.295 645.984 812.469 648.481C811.643 650.977 805.518 664.474 804.168 663.987Z" fill="#FFCD9C"/>
<path d="M809.845 696H831.608L834.87 716.622C823.014 723.005 816.101 722.301 806.85 715.214L809.845 696Z" fill="#F4AD7D"/>
<path d="M818.859 700.13C818.859 699.75 819.764 699.43 820.86 699.43C821.956 699.43 822.861 699.75 822.861 700.13C822.861 700.51 821.98 700.57 820.86 700.57C819.74 700.57 818.859 700.53 818.859 700.13Z" fill="#F4AD7D"/>
<path d="M839.892 690.808C840.716 685.894 842.06 650.708 838.764 646.051C835.469 641.394 815.741 638.381 812.749 639.108C806.05 640.731 807.221 645.517 807.221 645.517C805.23 645.547 803.28 646.084 801.563 647.076C799.265 648.615 794.43 670.79 798.289 687.56C800.023 695.102 806.852 701.66 818.646 701.981C833.171 702.365 838.895 696.896 839.892 690.808Z" fill="#606161"/>
<path d="M812.831 640.762C814.39 639.448 816.41 638.828 818.43 639.041C824.563 639.008 830.647 640.14 836.365 642.376C839.535 643.488 842.414 645.311 844.785 647.708C847.172 650.173 848.271 653.627 847.753 657.034C846.7 662.047 841.438 665.148 839.712 669.97C838.322 673.837 839.312 677.575 839.354 681.463C839.382 684.606 839.156 687.746 838.68 690.852C837.712 696.906 832.176 702.344 817.967 701.983C806.516 701.664 799.885 695.143 798.201 687.644C795.921 675.198 796.519 662.389 799.948 650.215C806.12 651.648 812.434 652.361 818.767 652.339C825.482 652.395 832.178 651.611 838.701 650.002C839.817 656.503 839.796 669.524 839.438 679.253" fill="#606161"/>
<path d="M777.702 712.954C774.268 713.241 770.96 714.384 768.077 716.28C763.139 720.171 762.764 727.43 762.848 733.748C762.678 742.501 763.285 751.252 764.66 759.897C766.139 767.826 768.827 775.441 771.035 783.202C774.516 795.831 776.344 808.862 776.473 821.966C776.473 829.162 776.348 837.07 780.827 842.697C785.723 848.806 794.39 849.998 802.182 850.438C813.245 851.086 824.349 851.17 835.412 850.709C842.829 850.375 850.725 849.643 856.6 845.082C861.288 841.442 872.267 718.288 863.746 715.171C855.225 712.054 846.058 711.259 837.016 710.506C816.745 708.791 797.661 707.431 777.702 712.954Z" fill="#505F98"/>
<path d="M841.521 968.291C840.435 982.255 837.843 1033 837.843 1033L831.238 1032.77C826.702 1008.39 833.997 980.732 831.238 948.899C829.586 929.465 821.895 891.996 816.857 891.746C818.362 879.221 826.827 881.1 826.827 881.1C832.984 890.294 838.294 900.026 842.692 910.178C847.729 923.37 842.629 954.263 841.521 968.291Z" fill="url(#paint32_linear_108_1327)"/>
<path d="M717.164 1034.02C716.133 1034.79 715.35 1035.83 714.913 1037.03C714.678 1038.01 714.773 1039.04 715.184 1039.97C716.35 1042.33 718.56 1044.02 721.168 1044.55C723.744 1045.04 726.383 1045.13 728.987 1044.82L737.328 1044.26C739.45 1044.21 741.555 1043.87 743.583 1043.26C745.614 1042.63 747.289 1041.2 748.212 1039.31C748.704 1037.92 748.895 1036.44 748.775 1034.97C748.775 1028.16 746.357 1022.63 738.808 1024.3C730.902 1025.77 723.474 1029.1 717.164 1034.02V1034.02Z" fill="#505F98"/>
<path d="M855.703 1037.06C856.65 1037.76 857.369 1038.71 857.77 1039.8C857.984 1040.68 857.9 1041.61 857.53 1042.45C856.468 1044.58 854.438 1046.11 852.047 1046.58C849.69 1047.04 847.273 1047.12 844.888 1046.83L837.316 1046.33C835.39 1046.28 833.478 1045.98 831.636 1045.43C829.779 1044.86 828.25 1043.57 827.415 1041.85C826.967 1040.59 826.789 1039.26 826.893 1037.93C826.893 1031.79 829.069 1026.72 836.01 1028.29C843.206 1029.62 849.964 1032.63 855.703 1037.06V1037.06Z" fill="#505F98"/>
<path d="M864.891 715C864.891 715 897.606 734.163 907.432 758.389C917.257 782.614 875.252 841 875.252 841L866.263 831.814C866.263 831.814 888.188 787.759 884.799 776.74C881.409 765.721 868.13 755.452 868.13 755.452L864.891 715Z" fill="#505F98"/>
<path d="M771.826 752.859C771.826 752.859 726.338 773.24 707.853 763.238C689.368 753.237 708.398 703 708.398 703L720.777 707.202C720.777 707.202 710.433 732.815 722.267 736.618C734.101 740.421 769.56 715.438 769.56 715.438L771.826 752.859Z" fill="#505F98"/>
<path d="M857.466 839.976C856.158 840.826 855.097 841.968 854.381 843.297C853.952 844.425 853.797 845.629 853.928 846.819C853.849 849.709 855.163 852.479 857.51 854.367C859.158 855.25 861.005 855.76 862.903 855.857C864.066 856.048 865.256 856.048 866.419 855.857C867.606 855.646 868.597 854.888 869.051 853.844C869.206 853.183 869.271 852.507 869.245 851.831C869.396 848.51 871.899 845.793 873.97 843.076C874.47 842.551 874.793 841.9 874.897 841.204C874.885 840.434 874.597 839.69 874.078 839.091C872.675 837.199 869.202 833.717 866.419 834.018C863.636 834.32 859.624 838.326 857.466 839.976Z" fill="#F4AD7D"/>
<path d="M728.585 695.435C729.178 694.611 729.582 693.679 729.772 692.698C729.923 691.683 729.386 690.687 728.431 690.211C726.915 689.647 725.114 691.13 723.62 690.504C723.114 690.235 722.69 689.846 722.389 689.375C720.625 686.945 719.613 684.093 719.467 681.143C719.553 679.571 719.405 677.995 719.028 676.463C718.583 674.886 717 673.849 715.293 674.018C713.886 674.331 713.095 675.689 712.217 676.776C711.338 677.863 709.58 679.158 708.437 680.516C706.487 683.307 705.37 686.55 705.208 689.898C704.592 694.077 704.197 698.861 707.273 701.87C709.646 704.189 716.874 706.927 720.192 705.694C723.861 704.315 726.74 698.444 728.585 695.435Z" fill="#F4AD7D"/>
<defs>
<linearGradient id="paint0_linear_108_1327" x1="528.402" y1="609.166" x2="593.156" y2="480.6" gradientUnits="userSpaceOnUse">
<stop stop-color="#010101" stop-opacity="0.01"/>
<stop offset="0.95" stop-color="#010101"/>
</linearGradient>
<linearGradient id="paint1_linear_108_1327" x1="583.563" y1="605.365" x2="676.417" y2="423.775" gradientUnits="userSpaceOnUse">
<stop stop-color="#010101" stop-opacity="0.01"/>
<stop offset="0.95" stop-color="#010101"/>
</linearGradient>
<linearGradient id="paint2_linear_108_1327" x1="703.545" y1="614.092" x2="840.899" y2="303.948" gradientUnits="userSpaceOnUse">
<stop stop-color="#010101" stop-opacity="0.01"/>
<stop offset="0.95" stop-color="#010101"/>
</linearGradient>
<linearGradient id="paint3_linear_108_1327" x1="831.379" y1="630.583" x2="1036.31" y2="183.179" gradientUnits="userSpaceOnUse">
<stop stop-color="#010101" stop-opacity="0.01"/>
<stop offset="0.36" stop-color="#010101" stop-opacity="0.36"/>
<stop offset="0.95" stop-color="#010101"/>
</linearGradient>
<linearGradient id="paint4_linear_108_1327" x1="682.726" y1="525.564" x2="799.886" y2="283.969" gradientUnits="userSpaceOnUse">
<stop stop-color="white" stop-opacity="0.01"/>
<stop offset="0.07" stop-color="white" stop-opacity="0.22"/>
<stop offset="0.16" stop-color="white" stop-opacity="0.45"/>
<stop offset="0.25" stop-color="white" stop-opacity="0.65"/>
<stop offset="0.33" stop-color="white" stop-opacity="0.8"/>
<stop offset="0.4" stop-color="white" stop-opacity="0.91"/>
<stop offset="0.46" stop-color="white" stop-opacity="0.98"/>
<stop offset="0.51" stop-color="white"/>
</linearGradient>
<linearGradient id="paint5_linear_108_1327" x1="604.65" y1="472.444" x2="668.846" y2="336.555" gradientUnits="userSpaceOnUse">
<stop stop-color="white" stop-opacity="0.01"/>
<stop offset="0.07" stop-color="white" stop-opacity="0.22"/>
<stop offset="0.16" stop-color="white" stop-opacity="0.45"/>
<stop offset="0.25" stop-color="white" stop-opacity="0.65"/>
<stop offset="0.33" stop-color="white" stop-opacity="0.8"/>
<stop offset="0.4" stop-color="white" stop-opacity="0.91"/>
<stop offset="0.46" stop-color="white" stop-opacity="0.98"/>
<stop offset="0.51" stop-color="white"/>
</linearGradient>
<linearGradient id="paint6_linear_108_1327" x1="909.972" y1="935.322" x2="920.393" y2="808.584" gradientUnits="userSpaceOnUse">
<stop stop-color="#010101" stop-opacity="0.01"/>
<stop offset="0.95" stop-color="#010101"/>
</linearGradient>
<linearGradient id="paint7_linear_108_1327" x1="508.259" y1="472.517" x2="505.544" y2="922.071" gradientUnits="userSpaceOnUse">
<stop stop-color="white" stop-opacity="0.01"/>
<stop offset="0.07" stop-color="white" stop-opacity="0.22"/>
<stop offset="0.16" stop-color="white" stop-opacity="0.45"/>
<stop offset="0.25" stop-color="white" stop-opacity="0.65"/>
<stop offset="0.33" stop-color="white" stop-opacity="0.8"/>
<stop offset="0.4" stop-color="white" stop-opacity="0.91"/>
<stop offset="0.46" stop-color="white" stop-opacity="0.98"/>
<stop offset="0.51" stop-color="white"/>
</linearGradient>
<linearGradient id="paint8_linear_108_1327" x1="254.605" y1="910.073" x2="254.705" y2="1052.31" gradientUnits="userSpaceOnUse">
<stop stop-color="#010101" stop-opacity="0.01"/>
<stop offset="0.95" stop-color="#010101"/>
</linearGradient>
<linearGradient id="paint9_linear_108_1327" x1="1407.02" y1="655.966" x2="1441.2" y2="248.855" gradientUnits="userSpaceOnUse">
<stop stop-color="white" stop-opacity="0.01"/>
<stop offset="0.07" stop-color="white" stop-opacity="0.22"/>
<stop offset="0.16" stop-color="white" stop-opacity="0.45"/>
<stop offset="0.25" stop-color="white" stop-opacity="0.65"/>
<stop offset="0.33" stop-color="white" stop-opacity="0.8"/>
<stop offset="0.4" stop-color="white" stop-opacity="0.91"/>
<stop offset="0.46" stop-color="white" stop-opacity="0.98"/>
<stop offset="0.51" stop-color="white"/>
</linearGradient>
<linearGradient id="paint10_linear_108_1327" x1="580.138" y1="545.87" x2="718.145" y2="914.142" gradientUnits="userSpaceOnUse">
<stop stop-color="white" stop-opacity="0.01"/>
<stop offset="0.07" stop-color="white" stop-opacity="0.22"/>
<stop offset="0.16" stop-color="white" stop-opacity="0.45"/>
<stop offset="0.25" stop-color="white" stop-opacity="0.65"/>
<stop offset="0.33" stop-color="white" stop-opacity="0.8"/>
<stop offset="0.4" stop-color="white" stop-opacity="0.91"/>
<stop offset="0.46" stop-color="white" stop-opacity="0.98"/>
<stop offset="0.51" stop-color="white"/>
</linearGradient>
<linearGradient id="paint11_linear_108_1327" x1="683.668" y1="568.99" x2="680.343" y2="851.698" gradientUnits="userSpaceOnUse">
<stop stop-color="white" stop-opacity="0.01"/>
<stop offset="0.07" stop-color="white" stop-opacity="0.22"/>
<stop offset="0.16" stop-color="white" stop-opacity="0.45"/>
<stop offset="0.25" stop-color="white" stop-opacity="0.65"/>
<stop offset="0.33" stop-color="white" stop-opacity="0.8"/>
<stop offset="0.4" stop-color="white" stop-opacity="0.91"/>
<stop offset="0.46" stop-color="white" stop-opacity="0.98"/>
<stop offset="0.51" stop-color="white"/>
</linearGradient>
<linearGradient id="paint12_linear_108_1327" x1="999.503" y1="760.704" x2="1018.69" y2="182.785" gradientUnits="userSpaceOnUse">
<stop stop-color="#010101" stop-opacity="0.01"/>
<stop offset="0.95" stop-color="#010101"/>
</linearGradient>
<linearGradient id="paint13_linear_108_1327" x1="998.651" y1="761.045" x2="1017.84" y2="183.125" gradientUnits="userSpaceOnUse">
<stop stop-color="#010101" stop-opacity="0.01"/>
<stop offset="0.95" stop-color="#010101"/>
</linearGradient>
<linearGradient id="paint14_linear_108_1327" x1="904.472" y1="758.354" x2="923.688" y2="180.435" gradientUnits="userSpaceOnUse">
<stop stop-color="#010101" stop-opacity="0.01"/>
<stop offset="0.95" stop-color="#010101"/>
</linearGradient>
<linearGradient id="paint15_linear_108_1327" x1="903.62" y1="758.694" x2="922.836" y2="180.776" gradientUnits="userSpaceOnUse">
<stop stop-color="#010101" stop-opacity="0.01"/>
<stop offset="0.95" stop-color="#010101"/>
</linearGradient>
<linearGradient id="paint16_linear_108_1327" x1="997.712" y1="762.545" x2="1016.93" y2="184.627" gradientUnits="userSpaceOnUse">
<stop stop-color="#010101" stop-opacity="0.01"/>
<stop offset="0.95" stop-color="#010101"/>
</linearGradient>
<linearGradient id="paint17_linear_108_1327" x1="903.682" y1="760.236" x2="922.87" y2="182.317" gradientUnits="userSpaceOnUse">
<stop stop-color="#010101" stop-opacity="0.01"/>
<stop offset="0.95" stop-color="#010101"/>
</linearGradient>
<linearGradient id="paint18_linear_108_1327" x1="951.672" y1="761.396" x2="970.888" y2="183.499" gradientUnits="userSpaceOnUse">
<stop stop-color="#010101" stop-opacity="0.01"/>
<stop offset="0.95" stop-color="#010101"/>
</linearGradient>
<linearGradient id="paint19_linear_108_1327" x1="953.488" y1="758.843" x2="972.704" y2="180.925" gradientUnits="userSpaceOnUse">
<stop stop-color="#010101" stop-opacity="0.01"/>
<stop offset="0.95" stop-color="#010101"/>
</linearGradient>
<linearGradient id="paint20_linear_108_1327" x1="608.41" y1="773.399" x2="840.643" y2="990.094" gradientUnits="userSpaceOnUse">
<stop stop-color="white" stop-opacity="0.01"/>
<stop offset="0.07" stop-color="white" stop-opacity="0.22"/>
<stop offset="0.16" stop-color="white" stop-opacity="0.45"/>
<stop offset="0.25" stop-color="white" stop-opacity="0.65"/>
<stop offset="0.33" stop-color="white" stop-opacity="0.8"/>
<stop offset="0.4" stop-color="white" stop-opacity="0.91"/>
<stop offset="0.46" stop-color="white" stop-opacity="0.98"/>
<stop offset="0.51" stop-color="white"/>
</linearGradient>
<linearGradient id="paint21_linear_108_1327" x1="593.437" y1="589.281" x2="593.42" y2="607.481" gradientUnits="userSpaceOnUse">
<stop stop-color="white" stop-opacity="0.01"/>
<stop offset="0.07" stop-color="white" stop-opacity="0.22"/>
<stop offset="0.16" stop-color="white" stop-opacity="0.45"/>
<stop offset="0.25" stop-color="white" stop-opacity="0.65"/>
<stop offset="0.33" stop-color="white" stop-opacity="0.8"/>
<stop offset="0.4" stop-color="white" stop-opacity="0.91"/>
<stop offset="0.46" stop-color="white" stop-opacity="0.98"/>
<stop offset="0.51" stop-color="white"/>
</linearGradient>
<linearGradient id="paint22_linear_108_1327" x1="512.737" y1="642.052" x2="626.168" y2="552.635" gradientUnits="userSpaceOnUse">
<stop stop-color="#010101" stop-opacity="0.01"/>
<stop offset="0.95" stop-color="#010101"/>
</linearGradient>
<linearGradient id="paint23_linear_108_1327" x1="562.575" y1="661.988" x2="723.852" y2="536.867" gradientUnits="userSpaceOnUse">
<stop stop-color="#010101" stop-opacity="0.01"/>
<stop offset="0.95" stop-color="#010101"/>
</linearGradient>
<linearGradient id="paint24_linear_108_1327" x1="667.519" y1="720.751" x2="923.684" y2="498.028" gradientUnits="userSpaceOnUse">
<stop stop-color="#010101" stop-opacity="0.01"/>
<stop offset="0.95" stop-color="#010101"/>
</linearGradient>
<linearGradient id="paint25_linear_108_1327" x1="776.279" y1="789.865" x2="1151.96" y2="471.45" gradientUnits="userSpaceOnUse">
<stop stop-color="#010101" stop-opacity="0.01"/>
<stop offset="0.36" stop-color="#010101" stop-opacity="0.36"/>
<stop offset="0.95" stop-color="#010101"/>
</linearGradient>
<linearGradient id="paint26_linear_108_1327" x1="624.537" y1="552.751" x2="807.477" y2="421.322" gradientUnits="userSpaceOnUse">
<stop stop-color="white" stop-opacity="0.01"/>
<stop offset="0.07" stop-color="white" stop-opacity="0.22"/>
<stop offset="0.16" stop-color="white" stop-opacity="0.45"/>
<stop offset="0.25" stop-color="white" stop-opacity="0.65"/>
<stop offset="0.33" stop-color="white" stop-opacity="0.8"/>
<stop offset="0.4" stop-color="white" stop-opacity="0.91"/>
<stop offset="0.46" stop-color="white" stop-opacity="0.98"/>
<stop offset="0.51" stop-color="white"/>
</linearGradient>
<linearGradient id="paint27_linear_108_1327" x1="638.151" y1="550.517" x2="754.009" y2="454.658" gradientUnits="userSpaceOnUse">
<stop stop-color="white" stop-opacity="0.01"/>
<stop offset="0.07" stop-color="white" stop-opacity="0.22"/>
<stop offset="0.16" stop-color="white" stop-opacity="0.45"/>
<stop offset="0.25" stop-color="white" stop-opacity="0.65"/>
<stop offset="0.33" stop-color="white" stop-opacity="0.8"/>
<stop offset="0.4" stop-color="white" stop-opacity="0.91"/>
<stop offset="0.46" stop-color="white" stop-opacity="0.98"/>
<stop offset="0.51" stop-color="white"/>
</linearGradient>
<linearGradient id="paint28_linear_108_1327" x1="503.738" y1="716.745" x2="541.923" y2="716.767" gradientUnits="userSpaceOnUse">
<stop stop-color="white" stop-opacity="0.01"/>
<stop offset="0.07" stop-color="white" stop-opacity="0.22"/>
<stop offset="0.16" stop-color="white" stop-opacity="0.45"/>
<stop offset="0.25" stop-color="white" stop-opacity="0.65"/>
<stop offset="0.33" stop-color="white" stop-opacity="0.8"/>
<stop offset="0.4" stop-color="white" stop-opacity="0.91"/>
<stop offset="0.46" stop-color="white" stop-opacity="0.98"/>
<stop offset="0.51" stop-color="white"/>
</linearGradient>
<linearGradient id="paint29_linear_108_1327" x1="430.446" y1="619.2" x2="442.097" y2="657.932" gradientUnits="userSpaceOnUse">
<stop stop-color="#010101" stop-opacity="0.01"/>
<stop offset="0.95" stop-color="#010101"/>
</linearGradient>
<linearGradient id="paint30_linear_108_1327" x1="455.244" y1="767.933" x2="556.146" y2="769.976" gradientUnits="userSpaceOnUse">
<stop stop-color="#010101" stop-opacity="0.01"/>
<stop offset="0.95" stop-color="#010101"/>
</linearGradient>
<linearGradient id="paint31_linear_108_1327" x1="858.015" y1="925.512" x2="761.922" y2="760.732" gradientUnits="userSpaceOnUse">
<stop stop-color="#010101" stop-opacity="0.01"/>
<stop offset="0.95" stop-color="#010101"/>
</linearGradient>
<linearGradient id="paint32_linear_108_1327" x1="859.037" y1="463.892" x2="686.151" y2="468.761" gradientUnits="userSpaceOnUse">
<stop stop-color="#010101" stop-opacity="0.01"/>
<stop offset="0.95" stop-color="#010101"/>
</linearGradient>
</defs>
</svg>
